<?xml version="1.0" encoding="UTF-8"?>
<svg width="1896px" height="708px" viewBox="0 0 1896 708" version="1.1" xmlns="http://www.w3.org/2000/svg" xmlns:xlink="http://www.w3.org/1999/xlink">
    <!-- Generator: Sketch 53.2 (72643) - https://sketchapp.com -->
    <title>about-timeline</title>
    <desc>Created with Sketch.</desc>
    <defs>
        <linearGradient x1="-46.1812392%" y1="120.835592%" x2="104.51268%" y2="-3.44897774%" id="linearGradient-1">
            <stop stop-color="#D7D7FF" offset="0%"></stop>
            <stop stop-color="#F8FAFB" offset="100%"></stop>
        </linearGradient>
        <linearGradient x1="74.9184402%" y1="30.1947288%" x2="59.6633892%" y2="135.969576%" id="linearGradient-2">
            <stop stop-color="#2D2DB0" offset="0%"></stop>
            <stop stop-color="#113255" offset="100%"></stop>
        </linearGradient>
        <linearGradient x1="74.9184402%" y1="28.0971151%" x2="59.6633892%" y2="145.074776%" id="linearGradient-3">
            <stop stop-color="#2D2DB0" offset="0%"></stop>
            <stop stop-color="#113255" offset="100%"></stop>
        </linearGradient>
        <path d="M1891.85106,174.191118 C1878.13104,241.488763 1853.98115,298.334929 1819.40136,344.729618 C1784.81716,391.130237 1729.63746,441.489249 1653.86227,495.806653 C1529.72413,575.191782 1402.07383,595.115292 1270.91136,555.577184 C1074.16766,496.270022 1104.01837,583.367344 942.927065,632.291813 C781.835759,681.216282 544.122633,501.025235 416.792998,510.959525 C325.510592,518.081402 242.858225,563.796915 168.835895,648.106064 C147.381134,678.875005 74.3018885,685.503783 37.4708019,648.106064 C0.639715211,610.708345 -7.30909569,562.724183 8.3491041,504.544633 C25.2930221,441.587874 142.301731,311.557419 168.835895,161.469767 C178.556421,106.486658 205.790014,55.5931294 277.972848,41.8811751 C388.330337,20.9175088 466.467672,53.8592387 549.676484,90.18778 C641.591232,130.317289 750.168696,161.469767 942.927065,145.306083 C1027.81174,138.188109 1092.5394,97.549101 1129.53246,70.956665 C1181.14253,33.8567992 1256.26305,19.3684681 1403.32268,75.8555703 C1550.38231,132.342673 1606.09823,70.956665 1652.04907,41.8811751 C1773.56955,-29.4951162 1870.45914,-12.0360701 1894.53451,113.429015 C1896.7528,124.989285 1895.90393,145.235245 1891.98791,174.166896 C1891.94229,174.17497 1891.89667,174.183044 1891.85106,174.191118 Z" id="path-4"></path>
    </defs>
    <g id="Page-1" stroke="none" stroke-width="1" fill="none" fill-rule="evenodd">
        <g id="about-timeline" transform="translate(0.000000, -60.000000)">
            <path d="M1179.54092,395.755167 C1134.02437,475.553755 1052.422,584.410292 923.34283,642.323592 C870.373463,666.08909 753.690743,682.752057 633.889725,680.413053 C561.004857,678.990043 481.917325,635.892719 376.40229,660.930358 C307.91035,677.182796 187.42217,743.08019 213.145169,813.753549 C233.706101,870.244245 353.341652,976.011411 485.411418,994.811778 C869.365484,1049.46832 1320.89169,782.785307 1402.47369,710.189425 C1562.49049,567.798201 1609.38521,309.318133 1585.03329,242.411795 C1582.90522,240.8046 1587.53398,233.458425 1580.22523,229.201768 C1479.03654,170.268867 1450.65553,283.047582 1383.36197,336.301234 C1297.67807,404.108328 1237.65419,293.872318 1179.54092,395.755167 Z" id="forma-gris" fill="url(#linearGradient-1)" fill-rule="nonzero" transform="translate(900.341797, 607.367470) scale(-1, 1) rotate(-160.000000) translate(-900.341797, -607.367470) "></path>
            <g id="forma-oscura" transform="translate(0.000000, 59.000000)">
                <g id="Combined-Shape" transform="translate(948.000000, 337.766996) scale(-1, 1) rotate(-180.000000) translate(-948.000000, -337.766996) translate(0.000000, 0.766996)">
                    <g id="path-3-link" fill="#000000" fill-rule="nonzero">
                        <path d="M1891.85106,174.191118 C1878.13104,241.488763 1853.98115,298.334929 1819.40136,344.729618 C1784.81716,391.130237 1729.63746,441.489249 1653.86227,495.806653 C1529.72413,575.191782 1402.07383,595.115292 1270.91136,555.577184 C1074.16766,496.270022 1104.01837,583.367344 942.927065,632.291813 C781.835759,681.216282 544.122633,501.025235 416.792998,510.959525 C325.510592,518.081402 242.858225,563.796915 168.835895,648.106064 C147.381134,678.875005 74.3018885,685.503783 37.4708019,648.106064 C0.639715211,610.708345 -7.30909569,562.724183 8.3491041,504.544633 C25.2930221,441.587874 142.301731,311.557419 168.835895,161.469767 C178.556421,106.486658 205.790014,55.5931294 277.972848,41.8811751 C388.330337,20.9175088 466.467672,53.8592387 549.676484,90.18778 C641.591232,130.317289 750.168696,161.469767 942.927065,145.306083 C1027.81174,138.188109 1092.5394,97.549101 1129.53246,70.956665 C1181.14253,33.8567992 1256.26305,19.3684681 1403.32268,75.8555703 C1550.38231,132.342673 1606.09823,70.956665 1652.04907,41.8811751 C1773.56955,-29.4951162 1870.45914,-12.0360701 1894.53451,113.429015 C1896.7528,124.989285 1895.90393,145.235245 1891.98791,174.166896 C1891.94229,174.17497 1891.89667,174.183044 1891.85106,174.191118 Z" id="path-3"></path>
                    </g>
                    <g id="path-3-link" fill="url(#linearGradient-3)">
                        <path d="M1891.85106,174.191118 C1878.13104,241.488763 1853.98115,298.334929 1819.40136,344.729618 C1784.81716,391.130237 1729.63746,441.489249 1653.86227,495.806653 C1529.72413,575.191782 1402.07383,595.115292 1270.91136,555.577184 C1074.16766,496.270022 1104.01837,583.367344 942.927065,632.291813 C781.835759,681.216282 544.122633,501.025235 416.792998,510.959525 C325.510592,518.081402 242.858225,563.796915 168.835895,648.106064 C147.381134,678.875005 74.3018885,685.503783 37.4708019,648.106064 C0.639715211,610.708345 -7.30909569,562.724183 8.3491041,504.544633 C25.2930221,441.587874 142.301731,311.557419 168.835895,161.469767 C178.556421,106.486658 205.790014,55.5931294 277.972848,41.8811751 C388.330337,20.9175088 466.467672,53.8592387 549.676484,90.18778 C641.591232,130.317289 750.168696,161.469767 942.927065,145.306083 C1027.81174,138.188109 1092.5394,97.549101 1129.53246,70.956665 C1181.14253,33.8567992 1256.26305,19.3684681 1403.32268,75.8555703 C1550.38231,132.342673 1606.09823,70.956665 1652.04907,41.8811751 C1773.56955,-29.4951162 1870.45914,-12.0360701 1894.53451,113.429015 C1896.7528,124.989285 1895.90393,145.235245 1891.98791,174.166896 C1891.94229,174.17497 1891.89667,174.183044 1891.85106,174.191118 Z" id="path-3"></path>
                    </g>
                </g>
                <g id="estrellas-Clipped" transform="translate(0.000000, 1.000000)">
                    <mask id="mask-5" fill="white">
                        <use xlink:href="#path-4"></use>
                    </mask>
                    <g id="path-3"></g>
                    <g id="estrellas" mask="url(#mask-5)">
                        <g transform="translate(249.000000, 107.000000)" id="Group">
                            <g transform="translate(672.000000, 228.320299) scale(-1, 1) rotate(-180.000000) translate(-672.000000, -228.320299) translate(0.000000, 0.320299)">
                                <path d="M699.780191,453.598233 C699.781129,453.979033 699.770624,454.363973 699.6762,454.733007 C699.6532,454.823307 699.3462,455.719644 699.2362,455.696699 C698.4742,455.544966 698.4222,454.703401 698.3332,454.235618 C698.295114,454.034145 698.269725,453.831727 698.252858,453.628783 C697.838232,453.630439 697.418149,453.622401 697.016003,453.523947 C696.920915,453.501947 695.977045,453.194947 696.000427,453.084947 C696.160207,452.322947 697.04718,452.269947 697.539769,452.181947 C697.765906,452.141351 697.99311,452.115181 698.220901,452.09838 C698.220807,452.048391 698.220594,451.998433 698.2202,451.948514 C698.2182,451.620622 698.2372,451.287548 698.3202,450.966318 C698.3432,450.876018 698.6492,449.9782 698.7602,450.000405 C699.5132,450.150658 699.6222,450.945593 699.6832,451.417077 C699.71117,451.634169 699.731997,451.85179 699.746922,452.0697 C699.814047,452.069657 699.881129,452.069449 699.948157,452.068947 C700.292658,452.066947 700.643394,452.085947 700.982439,452.168947 C701.077527,452.190947 702.022956,452.497947 701.999573,452.608947 C701.841353,453.361947 701.004262,453.469947 700.507776,453.531947 C700.265772,453.561556 700.023143,453.583161 699.780191,453.598233 Z" id="Combined-Shape" fill="#D7D7FF" fill-rule="nonzero"></path>
                                <path d="M997.393512,25.1685472 C996.958512,25.0855472 996.507512,25.0665472 996.065512,25.0685472 C995.913512,25.0695472 995.760512,25.0685472 995.607512,25.0685472 C995.592512,24.6835472 995.568512,24.2985472 995.532512,23.9145472 C995.471512,23.2775472 995.363512,22.2035472 994.609512,22.0005472 C994.497512,21.9705472 994.191512,23.1835472 994.168512,23.3055472 C994.086512,23.7395472 994.067512,24.1895472 994.069512,24.6325472 C994.070512,24.7855472 994.070512,24.9395472 994.069512,25.0925472 C993.704512,25.1065472 993.338512,25.1315472 992.976512,25.1825472 C992.343512,25.2705472 991.206512,25.3225472 991.000512,26.0845472 C990.971512,26.1945472 992.182512,26.5015472 992.303512,26.5235472 C992.885512,26.6355472 993.495512,26.6315472 994.092512,26.6275472 C994.107512,26.9935472 994.131512,27.3585472 994.182512,27.7225472 C994.270512,28.3545472 994.323512,29.4915472 995.084512,29.6965472 C995.195512,29.7275472 995.501512,28.5165472 995.524512,28.3945472 C995.635512,27.8135472 995.631512,27.2035472 995.628512,26.6065472 C996.014512,26.5925472 996.399512,26.5675472 996.783512,26.5315472 C997.420512,26.4715472 998.494512,26.3615472 998.698512,25.6085472 C998.727512,25.4975472 997.515512,25.1905472 997.393512,25.1685472" id="Fill-6" fill="#71CEFC" fill-rule="nonzero"></path>
                                <path d="M142.868312,27.052279 C141.343229,27.5581079 141.992133,30.0492677 143.538741,29.920753 C143.862877,29.8935306 144.170553,29.7523544 144.411122,29.536475 C144.469365,29.5073534 144.528242,29.4775987 144.582053,29.4364487 C145.820986,28.4786025 144.020513,26.6699002 142.868312,27.052279" id="Fill-1" fill="#92CDFA" fill-rule="nonzero"></path>
                                <path d="M0.868312428,107.052279 C-0.656771159,107.558108 -0.00786676842,110.049268 1.53874145,109.920753 C1.86287711,109.893531 2.17055275,109.752354 2.41112218,109.536475 C2.46936531,109.507353 2.52824151,109.477599 2.5820531,109.436449 C3.82098567,108.478603 2.02051339,106.6699 0.868312428,107.052279" id="Fill-1" fill="#92CDFA" fill-rule="nonzero"></path>
                                <path d="M306.780191,323.598233 C306.781129,323.979033 306.770624,324.363973 306.6762,324.733007 C306.6532,324.823307 306.3462,325.719644 306.2362,325.696699 C305.4742,325.544966 305.4222,324.703401 305.3332,324.235618 C305.295114,324.034145 305.269725,323.831727 305.252858,323.628783 C304.838232,323.630439 304.418149,323.622401 304.016003,323.523947 C303.920915,323.501947 302.977045,323.194947 303.000427,323.084947 C303.160207,322.322947 304.04718,322.269947 304.539769,322.181947 C304.765906,322.141351 304.99311,322.115181 305.220901,322.09838 C305.220807,322.048391 305.220594,321.998433 305.2202,321.948514 C305.2182,321.620622 305.2372,321.287548 305.3202,320.966318 C305.3432,320.876018 305.6492,319.9782 305.7602,320.000405 C306.5132,320.150658 306.6222,320.945593 306.6832,321.417077 C306.71117,321.634169 306.731997,321.85179 306.746922,322.0697 C306.814047,322.069657 306.881129,322.069449 306.948157,322.068947 C307.292658,322.066947 307.643394,322.085947 307.982439,322.168947 C308.077527,322.190947 309.022956,322.497947 308.999573,322.608947 C308.841353,323.361947 308.004262,323.469947 307.507776,323.531947 C307.265772,323.561556 307.023143,323.583161 306.780191,323.598233 Z" id="Combined-Shape" fill="#D7D7FF" fill-rule="nonzero"></path>
                                <path d="M1315.86831,237.052279 C1314.34323,237.558108 1314.99213,240.049268 1316.53874,239.920753 C1316.86288,239.893531 1317.17055,239.752354 1317.41112,239.536475 C1317.46937,239.507353 1317.52824,239.477599 1317.58205,239.436449 C1318.82099,238.478603 1317.02051,236.6699 1315.86831,237.052279" id="Fill-1" fill="#92CDFA" fill-rule="nonzero"></path>
                                <path d="M936.868312,282.052279 C935.343229,282.558108 935.992133,285.049268 937.538741,284.920753 C937.862877,284.893531 938.170553,284.752354 938.411122,284.536475 C938.469365,284.507353 938.528242,284.477599 938.582053,284.436449 C939.820986,283.478603 938.020513,281.6699 936.868312,282.052279" id="Fill-1" fill="#C7EBFF" fill-rule="nonzero"></path>
                                <path d="M536.868312,282.052279 C535.343229,282.558108 535.992133,285.049268 537.538741,284.920753 C537.862877,284.893531 538.170553,284.752354 538.411122,284.536475 C538.469365,284.507353 538.528242,284.477599 538.582053,284.436449 C539.820986,283.478603 538.020513,281.6699 536.868312,282.052279" id="Fill-1" fill="#C7EBFF" fill-rule="nonzero"></path>
                                <path d="M110.780191,234.598233 C110.781129,234.979033 110.770624,235.363973 110.6762,235.733007 C110.6532,235.823307 110.3462,236.719644 110.2362,236.696699 C109.4742,236.544966 109.4222,235.703401 109.3332,235.235618 C109.295114,235.034145 109.269725,234.831727 109.252858,234.628783 C108.838232,234.630439 108.418149,234.622401 108.016003,234.523947 C107.920915,234.501947 106.977045,234.194947 107.000427,234.084947 C107.160207,233.322947 108.04718,233.269947 108.539769,233.181947 C108.765906,233.141351 108.99311,233.115181 109.220901,233.09838 C109.220807,233.048391 109.220594,232.998433 109.2202,232.948514 C109.2182,232.620622 109.2372,232.287548 109.3202,231.966318 C109.3432,231.876018 109.6492,230.9782 109.7602,231.000405 C110.5132,231.150658 110.6222,231.945593 110.6832,232.417077 C110.71117,232.634169 110.731997,232.85179 110.746922,233.0697 C110.814047,233.069657 110.881129,233.069449 110.948157,233.068947 C111.292658,233.066947 111.643394,233.085947 111.982439,233.168947 C112.077527,233.190947 113.022956,233.497947 112.999573,233.608947 C112.841353,234.361947 112.004262,234.469947 111.507776,234.531947 C111.265772,234.561556 111.023143,234.583161 110.780191,234.598233 Z" id="Combined-Shape" fill="#D7D7FF" fill-rule="nonzero"></path>
                                <path d="M1124.78019,142.598233 C1124.78113,142.979033 1124.77062,143.363973 1124.6762,143.733007 C1124.6532,143.823307 1124.3462,144.719644 1124.2362,144.696699 C1123.4742,144.544966 1123.4222,143.703401 1123.3332,143.235618 C1123.29511,143.034145 1123.26972,142.831727 1123.25286,142.628783 C1122.83823,142.630439 1122.41815,142.622401 1122.016,142.523947 C1121.92091,142.501947 1120.97704,142.194947 1121.00043,142.084947 C1121.16021,141.322947 1122.04718,141.269947 1122.53977,141.181947 C1122.76591,141.141351 1122.99311,141.115181 1123.2209,141.09838 C1123.22081,141.048391 1123.22059,140.998433 1123.2202,140.948514 C1123.2182,140.620622 1123.2372,140.287548 1123.3202,139.966318 C1123.3432,139.876018 1123.6492,138.9782 1123.7602,139.000405 C1124.5132,139.150658 1124.6222,139.945593 1124.6832,140.417077 C1124.71117,140.634169 1124.732,140.85179 1124.74692,141.0697 C1124.81405,141.069657 1124.88113,141.069449 1124.94816,141.068947 C1125.29266,141.066947 1125.64339,141.085947 1125.98244,141.168947 C1126.07753,141.190947 1127.02296,141.497947 1126.99957,141.608947 C1126.84135,142.361947 1126.00426,142.469947 1125.50778,142.531947 C1125.26577,142.561556 1125.02314,142.583161 1124.78019,142.598233 Z" id="Combined-Shape" fill="#D7D7FF" fill-rule="nonzero"></path>
                                <path d="M1342.39351,3.16854721 C1341.95851,3.08554721 1341.50751,3.06654721 1341.06551,3.06854721 C1340.91351,3.06954721 1340.76051,3.06854721 1340.60751,3.06854721 C1340.59251,2.68354721 1340.56851,2.29854721 1340.53251,1.91454721 C1340.47151,1.27754721 1340.36351,0.203547214 1339.60951,0.000547214034 C1339.49751,-0.029452786 1339.19151,1.18354721 1339.16851,1.30554721 C1339.08651,1.73954721 1339.06751,2.18954721 1339.06951,2.63254721 C1339.07051,2.78554721 1339.07051,2.93954721 1339.06951,3.09254721 C1338.70451,3.10654721 1338.33851,3.13154721 1337.97651,3.18254721 C1337.34351,3.27054721 1336.20651,3.32254721 1336.00051,4.08454721 C1335.97151,4.19454721 1337.18251,4.50154721 1337.30351,4.52354721 C1337.88551,4.63554721 1338.49551,4.63154721 1339.09251,4.62754721 C1339.10751,4.99354721 1339.13151,5.35854721 1339.18251,5.72254721 C1339.27051,6.35454721 1339.32351,7.49154721 1340.08451,7.69654721 C1340.19551,7.72754721 1340.50151,6.51654721 1340.52451,6.39454721 C1340.63551,5.81354721 1340.63151,5.20354721 1340.62851,4.60654721 C1341.01451,4.59254721 1341.39951,4.56754721 1341.78351,4.53154721 C1342.42051,4.47154721 1343.49451,4.36154721 1343.69851,3.60854721 C1343.72751,3.49754721 1342.51551,3.19054721 1342.39351,3.16854721" id="Fill-6" fill="#71CEFC" fill-rule="nonzero"></path>
                                <path d="M1188.39351,408.168547 C1187.95851,408.085547 1187.50751,408.066547 1187.06551,408.068547 C1186.91351,408.069547 1186.76051,408.068547 1186.60751,408.068547 C1186.59251,407.683547 1186.56851,407.298547 1186.53251,406.914547 C1186.47151,406.277547 1186.36351,405.203547 1185.60951,405.000547 C1185.49751,404.970547 1185.19151,406.183547 1185.16851,406.305547 C1185.08651,406.739547 1185.06751,407.189547 1185.06951,407.632547 C1185.07051,407.785547 1185.07051,407.939547 1185.06951,408.092547 C1184.70451,408.106547 1184.33851,408.131547 1183.97651,408.182547 C1183.34351,408.270547 1182.20651,408.322547 1182.00051,409.084547 C1181.97151,409.194547 1183.18251,409.501547 1183.30351,409.523547 C1183.88551,409.635547 1184.49551,409.631547 1185.09251,409.627547 C1185.10751,409.993547 1185.13151,410.358547 1185.18251,410.722547 C1185.27051,411.354547 1185.32351,412.491547 1186.08451,412.696547 C1186.19551,412.727547 1186.50151,411.516547 1186.52451,411.394547 C1186.63551,410.813547 1186.63151,410.203547 1186.62851,409.606547 C1187.01451,409.592547 1187.39951,409.567547 1187.78351,409.531547 C1188.42051,409.471547 1189.49451,409.361547 1189.69851,408.608547 C1189.72751,408.497547 1188.51551,408.190547 1188.39351,408.168547" id="Fill-6" fill="#71CEFC" fill-rule="nonzero"></path>
                            </g>
                        </g>
                    </g>
                </g>
            </g>
        </g>
    </g>
</svg>